<svg width="228" height="200" viewBox="0 0 228 200" fill="none" xmlns="http://www.w3.org/2000/svg">
<path d="M167.351 192.688C168.47 190.108 171.369 188.881 173.826 189.947C176.283 191.013 177.367 193.968 176.248 196.547C175.129 199.127 172.231 200.354 169.774 199.288C167.317 198.222 166.232 195.267 167.351 192.688Z" fill="#FE9F43"/>
<path d="M201.15 114.779C202.269 112.2 205.167 110.973 207.624 112.039C210.081 113.104 211.165 116.059 210.046 118.639C208.927 121.218 206.029 122.445 203.572 121.379C201.115 120.313 200.031 117.358 201.15 114.779Z" fill="#FE9F43"/>
<path d="M100.819 163.825C101.938 161.245 104.837 160.018 107.293 161.084C109.75 162.15 110.835 165.105 109.716 167.684C108.597 170.264 105.698 171.49 103.241 170.425C100.784 169.359 99.7 166.404 100.819 163.825Z" fill="#FE9F43"/>
<path d="M134.617 85.916C135.736 83.3367 138.635 82.1097 141.092 83.1755C143.548 84.2413 144.633 87.1963 143.514 89.7756C142.395 92.3549 139.496 93.5819 137.04 92.5161C134.583 91.4503 133.498 88.4953 134.617 85.916Z" fill="#FE9F43"/>
<path d="M34.2924 134.964C35.4114 132.385 38.3101 131.158 40.7669 132.224C43.2237 133.289 44.3082 136.244 43.1892 138.824C42.0703 141.403 39.1715 142.63 36.7148 141.564C34.258 140.498 33.1734 137.543 34.2924 134.964Z" fill="#FE9F43"/>
<path d="M68.0906 57.0555C69.2096 54.4762 72.1083 53.2492 74.5651 54.315C77.0219 55.3808 78.1064 58.3358 76.9874 60.9151C75.8685 63.4945 72.9698 64.7214 70.513 63.6556C68.0562 62.5898 66.9717 59.6348 68.0906 57.0555Z" fill="#FE9F43"/>
<path d="M184.25 153.734C185.369 151.154 188.268 149.927 190.725 150.993C193.182 152.059 194.266 155.014 193.147 157.593C192.028 160.173 189.13 161.399 186.673 160.334C184.216 159.268 183.131 156.313 184.25 153.734Z" fill="#FE9F43"/>
<path d="M218.048 75.8254C219.167 73.2461 222.066 72.0192 224.523 73.085C226.98 74.1508 228.064 77.1057 226.945 79.6851C225.826 82.2644 222.928 83.4913 220.471 82.4255C218.014 81.3597 216.929 78.4048 218.048 75.8254Z" fill="#FE9F43"/>
<path d="M117.718 124.871C118.837 122.291 121.736 121.064 124.192 122.13C126.649 123.196 127.734 126.151 126.615 128.73C125.496 131.31 122.597 132.536 120.14 131.471C117.683 130.405 116.599 127.45 117.718 124.871Z" fill="#FE9F43"/>
<path d="M151.516 46.9624C152.635 44.383 155.534 43.1561 157.99 44.2219C160.447 45.2877 161.532 48.2427 160.413 50.822C159.294 53.4013 156.395 54.6283 153.938 53.5625C151.482 52.4967 150.397 49.5417 151.516 46.9624Z" fill="#FE9F43"/>
<path d="M51.1914 96.0101C52.3104 93.4308 55.2091 92.2038 57.6659 93.2696C60.1227 94.3354 61.2072 97.2904 60.0882 99.8697C58.9693 102.449 56.0705 103.676 53.6137 102.61C51.1569 101.544 50.0724 98.5894 51.1914 96.0101Z" fill="#FE9F43"/>
<path d="M84.9895 18.1019C86.1084 15.5226 89.0071 14.2956 91.4639 15.3614C93.9207 16.4272 95.0052 19.3822 93.8863 21.9615C92.7673 24.5408 89.8686 25.7678 87.4118 24.702C84.955 23.6362 83.8705 20.6812 84.9895 18.1019Z" fill="#FE9F43"/>
<path d="M134.085 178.256C135.204 175.677 138.103 174.45 140.56 175.516C143.016 176.581 144.101 179.536 142.982 182.116C141.863 184.695 138.964 185.922 136.508 184.856C134.051 183.79 132.966 180.835 134.085 178.256Z" fill="#FE9F43"/>
<path d="M167.883 100.348C169.002 97.7682 171.901 96.5413 174.358 97.6071C176.815 98.6729 177.899 101.628 176.78 104.207C175.661 106.786 172.763 108.013 170.306 106.948C167.849 105.882 166.764 102.927 167.883 100.348Z" fill="#FE9F43"/>
<path d="M67.5527 149.393C68.6717 146.814 71.5704 145.587 74.0272 146.653C76.484 147.718 77.5685 150.673 76.4495 153.253C75.3306 155.832 72.4318 157.059 69.9751 155.993C67.5183 154.927 66.4337 151.972 67.5527 149.393Z" fill="#FE9F43"/>
<path d="M101.351 71.4845C102.47 68.9051 105.369 67.6782 107.825 68.744C110.282 69.8098 111.367 72.7648 110.248 75.3441C109.129 77.9234 106.23 79.1504 103.773 78.0846C101.316 77.0188 100.232 74.0638 101.351 71.4845Z" fill="#FE9F43"/>
<path d="M1.02617 120.533C2.14513 117.953 5.04386 116.726 7.50064 117.792C9.95743 118.858 11.042 121.813 9.92299 124.392C8.80403 126.971 5.90531 128.198 3.44852 127.133C0.991734 126.067 -0.0927907 123.112 1.02617 120.533Z" fill="#FE9F43"/>
<path d="M34.8244 42.624C35.9434 40.0447 38.8421 38.8177 41.2989 39.8835C43.7557 40.9493 44.8402 43.9043 43.7212 46.4836C42.6023 49.0629 39.7035 50.2899 37.2467 49.2241C34.79 48.1583 33.7054 45.2033 34.8244 42.624Z" fill="#FE9F43"/>
<path d="M150.984 139.302C152.103 136.723 155.002 135.496 157.459 136.562C159.915 137.627 161 140.582 159.881 143.162C158.762 145.741 155.863 146.968 153.407 145.902C150.95 144.836 149.865 141.881 150.984 139.302Z" fill="#FE9F43"/>
<path d="M184.782 61.3939C185.901 58.8146 188.8 57.5876 191.257 58.6534C193.713 59.7192 194.798 62.6742 193.679 65.2535C192.56 67.8329 189.661 69.0598 187.205 67.994C184.748 66.9282 183.663 63.9732 184.782 61.3939Z" fill="#FE9F43"/>
<path d="M84.4517 110.439C85.5707 107.86 88.4694 106.633 90.9262 107.699C93.383 108.764 94.4675 111.719 93.3485 114.299C92.2296 116.878 89.3308 118.105 86.874 117.039C84.4173 115.973 83.3327 113.018 84.4517 110.439Z" fill="#FE9F43"/>
<path d="M118.25 32.5308C119.369 29.9515 122.267 28.7246 124.724 29.7904C127.181 30.8562 128.266 33.8111 127.147 36.3905C126.028 38.9698 123.129 40.1967 120.672 39.1309C118.215 38.0651 117.131 35.1102 118.25 32.5308Z" fill="#FE9F43"/>
<path d="M17.9252 81.5786C19.0441 78.9992 21.9428 77.7723 24.3996 78.8381C26.8564 79.9039 27.9409 82.8588 26.822 85.4382C25.703 88.0175 22.8043 89.2445 20.3475 88.1787C17.8907 87.1128 16.8062 84.1579 17.9252 81.5786Z" fill="#FE9F43"/>
<path d="M51.7232 3.67037C52.8422 1.09104 55.7409 -0.135924 58.1977 0.929877C60.6545 1.99568 61.739 4.95065 60.62 7.52998C59.5011 10.1093 56.6024 11.3363 54.1456 10.2705C51.6888 9.20466 50.6043 6.2497 51.7232 3.67037Z" fill="#FE9F43"/>
</svg>
